# xmcd CD database file
#
# Track frame offsets:
#	150
#	3825
#	22575
#	40950
#	65775
#	67650
#	89025
#	103650
#	126750
#	129600
#	149850
#	168225
#	183450
#	204375
#	222450
#	245775
#
# Disc length: 3618 seconds
#
# Revision: 1
# Processed by: cddbd v1.5.1PL0 Copyright (c) Steve Scherf et al.
# Submitted via: freeDBTagger 0.5
#
DISCID=ed0e2010
DTITLE=島谷ひとみ - シャンティ
DYEAR=2002
DGENRE=misc
TTITLE0=〜introduction〜
TTITLE1=シャンティ
TTITLE2=亜麻色の髪の乙女
TTITLE3=Glorious Day
TTITLE4=〜interlude〜
TTITLE5=A.S.A.P.〜as soon as possible〜
TTITLE6=She is...
TTITLE7=Remember of you
TTITLE8=interlude-
TTITLE9=やさしいキスの見つけ方
TTITLE10=freeze〜失われた夏の日〜
TTITLE11=Hello!
TTITLE12=beloved
TTITLE13=farewell
TTITLE14=Colors
TTITLE15=亜麻色の髪の乙女 (HIRO KURETANI REMIX)
EXTD=YEAR: 2002
EXTT0=
EXTT1=
EXTT2=
EXTT3=
EXTT4=
EXTT5=
EXTT6=
EXTT7=
EXTT8=
EXTT9=
EXTT10=
EXTT11=
EXTT12=
EXTT13=
EXTT14=
EXTT15=
PLAYORDER=
